<svg xmlns="http://www.w3.org/2000/svg" viewBox="0 0 100 100">
 <path fill="#93C57D" d="m42.645 11.105c-0.11719-0.25781-0.12109-0.53906-0.011719-0.78906 0.11328-0.26172 0.32813-0.45703 0.60938-0.55469l6.6836-2.2852c0.29297-0.097656 0.60547-0.070312 0.86719 0.09375 0.14844 0.085938 0.39844 0.29688 0.45703 0.67969 0.57422 4.0508 0.89453 8.1523 0.94922 12.195 0.0625 4.6836-0.31641 9.5234-1.0547 14.398-0.91797 0.10156-1.8516 0.17969-2.8086 0.17969-0.63281 0-1.2305-0.070313-1.8477-0.11328 0.32031-3.3281 0.40625-8.0547-0.60156-13.441-0.65625-3.5977-1.75-7.0859-3.2422-10.363z"/>
 <path fill="#93C57D" d="m78.77 28.227c8.0703 7.0547 10.961 19.746 7.7266 33.953-3.3711 14.789-12.609 26.664-22.992 29.539-3.6797 1.043-7.7734 1.1367-12.184 0.28516-1.9766-0.36719-3.9805-0.36328-5.9648 0.003906-4.4141 0.85156-8.5117 0.75-12.184-0.28906-10.395-2.8789-19.637-14.758-23.008-29.57-3.2266-14.195-0.33594-26.875 7.7422-33.918 7.8789-6.8594 19.117-4.2383 25.125-2.0625 0.38672 0.13672 0.77344 0.22656 1.1641 0.33203 0.26563 3.2227 0.16406 5.9766-0.050781 8.1523-2.8164-0.46484-5.2969-1.3516-6.9531-2.625-0.51172-0.39844-1.2539-0.29688-1.6445 0.21094-0.39453 0.51172-0.29688 1.2461 0.21484 1.6406 2.8828 2.2188 7.4648 3.4883 12.574 3.4883 1.418 0 2.793-0.12891 4.125-0.32422 0.007812 0 0.007812-0.003907 0.015624-0.003907 3.3867-0.50391 6.3984-1.5938 8.4375-3.1602 0.51172-0.39453 0.60938-1.1289 0.21484-1.6406-0.39453-0.50781-1.1289-0.61328-1.6445-0.21094-1.4297 1.0977-3.5469 1.9023-5.9336 2.4141 0.40234-2.8086 0.66406-5.5938 0.80859-8.3555 2.6758 1.7266 7.2227 4.2695 10.895 4.2695 0.24219 0 0.47656-0.007813 0.71094-0.035157 3.7227-0.35156 5.9141-1.9609 8.6953-3.9961 0.17969-0.13281 0.38281-0.27344 0.57031-0.41406 1.2148 0.58203 2.3867 1.3164 3.5391 2.3164z"/>
 <path fill="#93C57D" d="m82.598 18.867c-3.6406 1.6055-6.1328 3.2695-8.1641 4.7266-0.054688 0.039062-0.11719 0.070312-0.16406 0.11719-0.33594 0.24219-0.6875 0.49219-1 0.72266-2.5859 1.8945-4.4492 3.2617-7.5352 3.5586-2.4766 0.22656-6.1055-1.3984-9.3164-3.375 1.7734-4.1367 5.1914-7.1641 9.3438-8.1484 2.2578-0.5625 4.7148-0.50781 7.3047 0.14844 0.625 0.16016 1.2656-0.21484 1.4258-0.84766 0.16016-0.63281-0.21875-1.2656-0.84766-1.4258-2.9766-0.75781-5.8203-0.81641-8.4414-0.16016-4.7266 1.125-8.6406 4.4805-10.758 9.0898 0.011719-0.58594 0.054688-1.1797 0.054688-1.7617 0.007812-0.023438 0.023438-0.039063 0.027344-0.066407 0.58203-2.9609 2.3633-8.3828 7.7656-11.422 7.332-4.1172 20.031-2.9336 28.836 6.0234-2.9531 0.70312-5.8203 1.6484-8.5312 2.8203z"/>
</svg>