<svg xmlns="http://www.w3.org/2000/svg" viewBox="0 0 100 100">
  <path d="m93.969 10.418c-0.10547 2.4375-1.3125 23.832-11.457 25.488-0.11328 0.011719-0.22266 0.011719-0.33594 0-0.25 0.003906-0.49609-0.042969-0.72656-0.13672-4.3867-1.6367-11.957-7.2188-9.2812-16.668v0.003907c0.25391-0.88672 1.0586-1.5 1.9766-1.5117 0.14453 0 11-0.26172 15.918-8.4258 0.47266-0.89453 1.5156-1.3164 2.4766-1.0117 0.96094 0.30859 1.5625 1.2617 1.4297 2.2617zm-68.156 7.293c-0.11328 0-10.988-0.25-15.918-8.4258v-0.003906c-0.48828-0.80859-1.4609-1.1875-2.3672-0.91797-0.90625 0.26562-1.5234 1.1094-1.4961 2.0547 0.10547 2.4375 1.3125 23.832 11.457 25.488 0.11328 0.011719 0.22266 0.011719 0.33594 0 0.25 0.003906 0.49609-0.042969 0.72656-0.13672 4.3867-1.6367 11.957-7.2188 9.2812-16.668v0.003907c-0.27344-0.88281-1.0977-1.4727-2.0195-1.4609zm40.625 31.051 2 3.125c0.28516 0.47656 0.36719 1.0469 0.23047 1.582-0.13672 0.53906-0.48047 1-0.96094 1.2812-0.46875 0.29297-1.0312 0.39062-1.5742 0.26953-0.53906-0.125-1.0039-0.45703-1.3008-0.92578l-2.082-3.3438-5.7383 3.2383c1.0352 4.3594 5.1758 7.2422 9.6211 6.7109 4.4453-0.53125 7.7852-4.3164 7.7617-8.793 0-2.3516-0.94922-4.6055-2.6328-6.25zm23.875-12.605c-1.8477 2.0547-4.332 3.4258-7.0508 3.8945-0.34766 0.054688-0.69531 0.085938-1.043 0.085938-0.74609 0-1.4883-0.13672-2.1875-0.39844-6.543-2.4492-15.094-10.23-11.824-21.668v0.003907c0.58203-2.0312 2.1523-3.6289 4.168-4.25-6.7344-4.1758-14.504-6.3867-22.426-6.3867-7.9258 0-15.691 2.2109-22.43 6.3867 2.0391 0.60547 3.6289 2.207 4.2188 4.25 3.2695 11.457-5.2812 19.219-11.824 21.668l0.003907-0.003907c-0.69922 0.26172-1.4414 0.39844-2.1875 0.39844-0.35156 0-0.69922-0.03125-1.043-0.085938-2.7305-0.46484-5.2227-1.8477-7.0625-3.9141-1.5234 4.4609-2.2812 9.1484-2.25 13.863-0.011719 12.543 5.5039 24.453 15.078 32.562 9.5703 8.1055 22.227 11.582 34.598 9.5078 12.371-2.0742 23.199-9.4922 29.602-20.277 6.4023-10.785 7.7305-23.844 3.6289-35.699zm-68.895 15.781c0.011719-4.1445 1.9961-8.0352 5.3438-10.48 0.65625-0.48047 1.5352-0.53516 2.25-0.13281l17.258 9.7188c0.70703 0.40234 1.1133 1.1797 1.043 1.9883-0.62109 6.9102-6.5664 12.109-13.496 11.805-6.9297-0.30469-12.395-6.0039-12.41-12.941zm48.602 20.98c-5.3125 5.3008-12.512 8.2773-20.02 8.2773s-14.707-2.9766-20.02-8.2773c-0.81641-0.81641-0.81641-2.1367 0-2.9492 0.8125-0.8125 2.1328-0.8125 2.9453 0 4.5312 4.5234 10.672 7.0625 17.074 7.0625s12.543-2.5391 17.074-7.0625c0.8125-0.8125 2.1328-0.8125 2.9453 0 0.81641 0.8125 0.81641 2.1328 0 2.9492zm-4.3945-8c-6.7305 0.050781-12.371-5.0859-12.949-11.793-0.070312-0.80859 0.33594-1.5859 1.043-1.9883l17.262-9.7617c0.71094-0.39844 1.5898-0.34766 2.25 0.13672 4.4922 3.3125 6.3633 9.1328 4.6367 14.445-1.7266 5.3086-6.6562 8.918-12.242 8.9609zm-22.656-10.93-5.7383-3.2383-2.082 3.3438h-0.003907c-0.61328 0.97656-1.8984 1.2695-2.875 0.65625-0.97266-0.61328-1.2695-1.8984-0.65625-2.875l2-3.125-5.375-3.043c-2.5039 2.5078-3.2656 6.2773-1.9258 9.5586 1.3398 3.2852 4.5156 5.4453 8.0625 5.4844 4.0781-0.011719 7.6211-2.8008 8.5938-6.7617z"/>
</svg>