<svg xmlns="http://www.w3.org/2000/svg" viewBox="0 0 64 64" style="enable-background:new 0 0 64 64;">
  <g>
    <path fill="#CE5E5D" d="M32,7C18.2,7,7,18.2,7,32c0,13.8,11.2,25,25,25s25-11.2,25-25C57,18.2,45.8,7,32,7z M32,53c-11.6,0-21-9.4-21-21c0-11.6,9.4-21,21-21s21,9.4,21,21C53,43.6,43.6,53,32,53z M32,13c-10.5,0-19,8.5-19,19c0,10.5,8.5,19,19,19s19-8.5,19-19C51,21.5,42.5,13,32,13z M43.4,30.7l-5.1,3.7l1.9,6c0.3,0.8,0,1.7-0.7,2.3c-0.4,0.3-0.8,0.4-1.2,0.4c-0.4,0-0.8-0.1-1.2-0.4L32,39l-5.2,3.7c-0.7,0.5-1.7,0.5-2.4,0c-0.7-0.5-1-1.4-0.7-2.3l2-6l-5.1-3.8c-0.7-0.5-1-1.4-0.7-2.3c0.3-0.8,1-1.4,1.9-1.4h6.3l2-6c0.3-0.9,1-1.4,1.9-1.4s1.7,0.5,1.9,1.4l2,6l6.3,0c0.9,0,1.7,0.5,1.9,1.4C44.5,29.3,44.2,30.1,43.4,30.7z"/>
  </g>
</svg>