<svg xmlns="http://www.w3.org/2000/svg" viewBox="0 0 24 24">
  <defs>
    <clipPath id="topHalf">
      <rect x="0" y="0" width="24" height="12"/>
    </clipPath>
    <clipPath id="bottomHalf">
      <rect x="0" y="12" width="24" height="12"/>
    </clipPath>
  </defs>
  <g>
    <!-- 上半部分 -->
    <path fill="#CE5E5D" d="M20.79736,16.1709l-6.26318-4.18652,6.188-4.29688a.9996.9996,0,0,0,.25049-1.39258,9.99982,9.99982,0,1,0,.10009,11.26367.99985.99985,0,0,0-.27539-1.38769ZM11.9458,6.69629a1.66968,1.66968,0,1,1,1.66992,1.66992A1.67168,1.67168,0,0,1,11.9458,6.69629Z" clip-path="url(#topHalf)"/>
    <!-- 下半部分 -->
    <path fill="#6E9EEB" d="M20.79736,16.1709l-6.26318-4.18652,6.188-4.29688a.9996.9996,0,0,0,.25049-1.39258,9.99982,9.99982,0,1,0,.10009,11.26367.99985.99985,0,0,0-.27539-1.38769ZM11.9458,6.69629a1.66968,1.66968,0,1,1,1.66992,1.66992A1.67168,1.67168,0,0,1,11.9458,6.69629Z" clip-path="url(#bottomHalf)"/>
  </g>
</svg>